<svg id="Layer_1" data-name="Layer 1" xmlns="http://www.w3.org/2000/svg" viewBox="0 0 36 36"><defs><style>.cls-1{fill-rule:evenodd;}</style></defs><title>capture</title><path class="cls-1" d="M24.49,1.21A18,18,0,0,1,35.11,12.4a.56.56,0,0,1-.1.53.54.54,0,0,1-.51.2L17.56,11a.6.6,0,0,1-.5-.32.55.55,0,0,1,.06-.59l6.72-8.73A.56.56,0,0,1,24.49,1.21ZM6.71,4a18.06,18.06,0,0,1,15-3.6.58.58,0,0,1,.42.36.59.59,0,0,1-.09.54L11.74,14.89a.61.61,0,0,1-.53.29.57.57,0,0,1-.48-.35L6.53,4.64A.56.56,0,0,1,6.71,4ZM.21,20.78A18,18,0,0,1,4.6,6a.54.54,0,0,1,.51-.18.52.52,0,0,1,.42.34l6.64,15.72a.57.57,0,0,1,0,.6.54.54,0,0,1-.53.24L.7,21.25A.56.56,0,0,1,.21,20.78Zm11.3,14A18,18,0,0,1,.89,23.6a.57.57,0,0,1,.1-.53.56.56,0,0,1,.51-.19L18.44,25a.6.6,0,0,1,.5.31.57.57,0,0,1-.06.6l-6.72,8.72A.53.53,0,0,1,11.51,34.79ZM29.29,32a18,18,0,0,1-15,3.59.56.56,0,0,1-.42-.34.61.61,0,0,1,.09-.55L24.26,21.1a.61.61,0,0,1,.53-.27.55.55,0,0,1,.48.35l4.2,10.18A.56.56,0,0,1,29.29,32Zm6.5-16.79A18,18,0,0,1,31.4,30a.53.53,0,0,1-.51.19.58.58,0,0,1-.42-.34L23.83,14.13a.57.57,0,0,1,0-.59.53.53,0,0,1,.54-.25L35.3,14.76A.54.54,0,0,1,35.79,15.23Z"/></svg>