<svg id="Layer_1" data-name="Layer 1" xmlns="http://www.w3.org/2000/svg" viewBox="0 0 36 36"><title>clear</title><path d="M20.48,29.26,30.82,18.92,16,4.09,1.71,18.37a2.12,2.12,0,0,0,0,3L9.6,29.26Z"/><path d="M34.06,30.91H1.94a2.08,2.08,0,0,0-1.49.63A2,2,0,0,0-.17,33a2.11,2.11,0,0,0,.62,1.49,2.07,2.07,0,0,0,1.49.62H34.06a2.08,2.08,0,0,0,1.45-.58l0,0a2.1,2.1,0,0,0,0-2.94l0,0A2.08,2.08,0,0,0,34.06,30.91Z"/><path d="M32,17.76l2.3-2.31a2.12,2.12,0,0,0,0-3L22.46.62a2.12,2.12,0,0,0-3,0l-2.31,2.3L32,17.76Z"/></svg>