<svg id="Layer_1" data-name="Layer 1" xmlns="http://www.w3.org/2000/svg" xmlns:xlink="http://www.w3.org/1999/xlink" viewBox="0 0 16 16"><defs><style>.cls-1{fill:url(#linear-gradient);}.cls-2,.cls-3,.cls-4{fill:#fff;}.cls-3{stroke:#fff;stroke-miterlimit:10;stroke-width:0.5px;}.cls-4{fill-rule:evenodd;}</style><linearGradient id="linear-gradient" y1="8" x2="16" y2="8" gradientUnits="userSpaceOnUse"><stop offset="0" stop-color="#6181c1"/><stop offset="0.23" stop-color="#7985c1"/><stop offset="0.72" stop-color="#b590c2"/><stop offset="1" stop-color="#db97c2"/></linearGradient></defs><title>logo</title><rect class="cls-1" width="16" height="16" rx="1.4"/><path class="cls-2" d="M1.48,5.59a.32.32,0,0,1-.32-.32V1.56a.48.48,0,0,1,.48-.48h3.7a.33.33,0,0,1,.33.33.32.32,0,0,1-.33.32H1.81V5.27A.32.32,0,0,1,1.48,5.59Z"/><path class="cls-2" d="M14.6,5.59a.32.32,0,0,1-.33-.32V1.73H10.74a.32.32,0,0,1-.33-.32.33.33,0,0,1,.33-.33h3.7a.49.49,0,0,1,.49.48V5.27A.32.32,0,0,1,14.6,5.59Zm-.16-3.86Z"/><path class="cls-2" d="M14.36,14.92h-3.7a.33.33,0,0,1-.33-.33.32.32,0,0,1,.33-.32h3.53V10.73a.32.32,0,0,1,.33-.32.32.32,0,0,1,.32.32v3.71A.48.48,0,0,1,14.36,14.92Z"/><path class="cls-2" d="M5.26,14.92H1.56a.49.49,0,0,1-.49-.48V10.73a.33.33,0,0,1,.66,0v3.54H5.26a.32.32,0,0,1,.33.32A.33.33,0,0,1,5.26,14.92Z"/><path class="cls-3" d="M7.91,7.53,6.69,8.66A8.27,8.27,0,0,1,6,9.24a1.16,1.16,0,0,1-.69.24.58.58,0,0,1-.55-.38.92.92,0,0,1-.11-.43,4.4,4.4,0,0,1,.65-2,8.77,8.77,0,0,1,1.6-2.06c.67-.67,1.15-1,1.43-1a.23.23,0,0,1,.18.08.29.29,0,0,1,.07.18.38.38,0,0,1-.13.29,2.45,2.45,0,0,1-.3.21,5.81,5.81,0,0,0-.88.74A7.18,7.18,0,0,0,5.89,6.9a4.1,4.1,0,0,0-.54,1.5.27.27,0,0,0,.05.18.24.24,0,0,0,.21.1,1.75,1.75,0,0,0,.82-.46,9.21,9.21,0,0,0,1.13-1A28.18,28.18,0,0,0,9.45,5c.4-.54.74-1,1-1.3s.41-.42.54-.42a.25.25,0,0,1,.21.13.39.39,0,0,1,.07.23,1,1,0,0,1-.24.54C9.9,5.69,9.14,6.71,8.77,7.26A19.78,19.78,0,0,0,7.3,9.87a18.2,18.2,0,0,0-.87,2.06,1.9,1.9,0,0,1-.27.6.43.43,0,0,1-.29.13.26.26,0,0,1-.3-.29A4.62,4.62,0,0,1,6,11.1,17.82,17.82,0,0,1,7.12,8.84Z"/><path class="cls-4" d="M10.22,9.43a1.67,1.67,0,0,1,1,1,.09.09,0,0,1,0,0l0,0-1.57-.2a.05.05,0,0,1-.05,0,.07.07,0,0,1,0-.05l.62-.81S10.2,9.42,10.22,9.43Zm-1.64.26A1.64,1.64,0,0,1,10,9.36s0,0,0,0a0,0,0,0,1,0,0L9,10.7a.05.05,0,0,1,0,0l0,0-.39-.94A0,0,0,0,1,8.58,9.69ZM8,11.25a1.67,1.67,0,0,1,.41-1.37s0,0,0,0,0,0,0,0l.61,1.46a0,0,0,0,1,0,.05,0,0,0,0,1-.05,0l-1-.13S8,11.27,8,11.25Zm1,1.29a1.64,1.64,0,0,1-1-1s0,0,0,0,0,0,0,0l1.57.19.05,0a0,0,0,0,1,0,.06l-.62.81S9,12.55,9,12.54Zm1.65-.25a1.69,1.69,0,0,1-1.39.33s0,0,0,0a0,0,0,0,1,0-.05l.95-1.26a.06.06,0,0,1,.1,0l.38,1A0,0,0,0,1,10.67,12.29Zm.6-1.56a1.64,1.64,0,0,1-.41,1.37,0,0,0,0,1,0,0l0,0-.62-1.46a.06.06,0,0,1,0-.06l.05,0,1,.14A0,0,0,0,1,11.27,10.73Z"/></svg>